<?xml version="1.0" encoding="utf-8"?>
<!-- Generator: Adobe Illustrator 19.0.0, SVG Export Plug-In . SVG Version: 6.00 Build 0)  -->
<svg version="1.1" id="asseco-logotype" xmlns="http://www.w3.org/2000/svg"  x="0px"
	 y="0px" width="340px" height="17px" viewBox="-163 151.3 220 10.8" style="enable-background:new -163 151.3 220 10.8;"
	 xml:space="preserve">
<style type="text/css">
	.st0{fill:#00A4E0;}
</style>
<g>
	<g>
		<path class="st0" d="M-58.7,160.3c0.2,0.5,0.5,0.9,1.2,0.9c0.6,0,1-0.3,1-0.8c0-1.3-2.9-1-2.9-3c0-1,0.7-1.7,1.9-1.7
			c1.2,0,1.7,0.8,1.8,1.3l-0.8,0.4c-0.1-0.3-0.4-0.7-1.1-0.7c-0.5,0-0.9,0.4-0.9,0.8c0,1.2,2.9,1,2.9,3c0,1.1-0.8,1.8-2,1.8
			c-1.3,0-1.8-0.9-2-1.4L-58.7,160.3z"/>
		<path class="st0" d="M-50.6,155.6c1.9,0,3.2,1.4,3.2,3.3s-1.4,3.3-3.3,3.3c-1.9,0-3.2-1.4-3.2-3.3S-52.5,155.6-50.6,155.6z
			 M-50.6,161.2c1.2,0,2.2-1,2.2-2.3c0-1.3-1-2.3-2.2-2.3c-1.2,0-2.2,1-2.2,2.3C-52.9,160.2-51.9,161.2-50.6,161.2z"/>
		<path class="st0" d="M-45.6,159.7v-4h1v4c0,1,0.5,1.5,1.4,1.5c1,0,1.4-0.6,1.4-1.5v-3.9h1v4c0,1.4-0.9,2.4-2.4,2.4
			C-44.7,162.1-45.6,161.2-45.6,159.7z"/>
		<path class="st0" d="M-37.4,156.6H-39v-0.9h4.2v0.9h-1.6v5.4h-1L-37.4,156.6L-37.4,156.6z"/>
		<path class="st0" d="M-33,155.7h1v2.7h3v-2.7h1v6.3h-1v-2.7h-3v2.7h-1V155.7z"/>
		<path class="st0" d="M-22.7,155.7h3.1v0.9h-2.1v1.8h1.8v0.9h-1.8v1.8h2.2v0.9h-3.2L-22.7,155.7L-22.7,155.7z"/>
		<path class="st0" d="M-16.4,160.2L-17,162h-1l2.3-6.3h1l2.3,6.3h-1l-0.7-1.8H-16.4z M-15.2,156.8l-0.9,2.6h1.7L-15.2,156.8z"/>
		<path class="st0" d="M-10.3,160.3c0.2,0.5,0.5,0.9,1.2,0.9c0.6,0,1-0.3,1-0.8c0-1.3-2.9-1-2.9-3c0-1,0.7-1.7,1.9-1.7
			s1.7,0.8,1.8,1.3l-0.8,0.4c-0.1-0.3-0.4-0.7-1.1-0.7c-0.5,0-0.9,0.4-0.9,0.8c0,1.2,2.9,1,2.9,3c0,1.1-0.8,1.8-2,1.8
			c-1.3,0-1.8-0.9-2-1.4L-10.3,160.3z"/>
		<path class="st0" d="M-4.1,156.6h-1.6v-0.9h4.2v0.9h-1.6v5.4h-1L-4.1,156.6L-4.1,156.6z"/>
		<path class="st0" d="M0.3,155.7h3.1v0.9H1.3v1.8h1.8v0.9H1.3v1.8h2.2v0.9H0.2L0.3,155.7L0.3,155.7z"/>
		<path class="st0" d="M5.5,155.7h1.7c1.4,0,2.1,0.8,2.1,1.8c0,0.7-0.4,1.4-1,1.6l1.5,2.9H8.7l-1.3-2.6H6.5v2.6h-1L5.5,155.7
			L5.5,155.7z M7.2,158.6c0.7,0,1.1-0.4,1.1-1c0-0.6-0.4-1-1.1-1H6.6v2H7.2z"/>
		<path class="st0" d="M11.5,155.7h1l3.1,4.8v-4.8h1v6.3h-1l-3.1-4.7v4.7h-1V155.7z"/>
		<path class="st0" d="M22,155.7h3.1v0.9h-2.1v1.8h1.8v0.9h-1.8v1.8h2.2v0.9h-3.2L22,155.7L22,155.7z"/>
		<path class="st0" d="M27.1,159.7v-4h1v4c0,1,0.5,1.5,1.4,1.5s1.4-0.6,1.4-1.5v-3.9h1v4c0,1.4-0.9,2.4-2.4,2.4
			C28,162.1,27.1,161.2,27.1,159.7z"/>
		<path class="st0" d="M34.2,155.7h1.7c1.4,0,2.1,0.8,2.1,1.8c0,0.7-0.4,1.4-1,1.6l1.5,2.9h-1.1l-1.3-2.6h-0.9v2.6h-1L34.2,155.7
			L34.2,155.7z M35.9,158.6c0.7,0,1.1-0.4,1.1-1c0-0.6-0.4-1-1.1-1h-0.7v2H35.9z"/>
		<path class="st0" d="M43.1,155.6c1.9,0,3.2,1.4,3.2,3.3s-1.4,3.3-3.3,3.3c-1.9,0-3.2-1.4-3.2-3.3S41.2,155.6,43.1,155.6z
			 M43.1,161.2c1.2,0,2.2-1,2.2-2.3c0-1.3-1-2.3-2.2-2.3s-2.2,1-2.2,2.3C40.9,160.2,41.8,161.2,43.1,161.2z"/>
		<path class="st0" d="M48.2,155.7H50c1.2,0,2,0.8,2,1.9s-0.9,1.9-2,1.9h-0.8v2.5h-1V155.7z M49.9,158.6c0.7,0,1.1-0.4,1.1-1.1
			c0-0.6-0.5-1-1.1-1h-0.7v2.1H49.9z"/>
		<path class="st0" d="M53.8,155.7h3.1v0.9h-2.1v1.8h1.8v0.9h-1.8v1.8H57v0.9h-3.2L53.8,155.7L53.8,155.7z"/>
	</g>
	<g>
		<path id="XMLID_10_" d="M-117.8,152.3c0-0.6-0.4-1-1-1h-4.1c-2.2,0-3.2,1-3.2,3.2v4.4c0,0.9-0.4,1.2-1.3,1.2h-5.3
			c-0.6,0-1,0.4-1,1c0,0.5,0.4,1,1,1h5.4c2.2,0,3.2-1,3.2-3.2v-4.4c0-1,0.4-1.2,1.2-1.2h4.1C-118.1,153.2-117.8,152.9-117.8,152.3
			L-117.8,152.3z"/>
		<path id="XMLID_9_" d="M-150.4,151.3h-9.4c-1.9,0-3.2,1.3-3.2,3.2v4.4c0,1.9,1.2,3.2,3.2,3.2h7.6c0.7,0,1.2-0.7,1.2-1.2v-2.2
			c0-0.5-0.4-1-0.9-1c-0.6,0-1,0.4-1,1v1.5h-7c-0.7,0-1.2-0.7-1.2-1.2v-4.4c0-0.7,0.7-1.2,1.2-1.2h9.4c0.7,0,1.2,0.7,1.2,1.2v6.6
			c0,0.5,0.4,1,1,1c0.5,0,1-0.3,1-1v-6.6C-147.3,152.6-148.5,151.3-150.4,151.3L-150.4,151.3z"/>
		<path id="XMLID_8_" d="M-115.9,158.9c0,2.2,1,3.2,3.2,3.2c3.9,0,7.7,0,11.6,0c0.6,0,1-0.4,1-1c0-0.5-0.4-1-1-1h-11.6
			c-1,0-1.2-0.4-1.2-1.2v-4.4c0-1,0.4-1.2,1.2-1.2h9.4c0.9,0,1.2,0.4,1.2,1.2c0,1-0.4,1.2-1.2,1.2h-7.9c-0.7,0-1,0.3-1,1
			c0,0.6,0.3,1,1,1h7.9c2.2,0,3.2-1,3.2-3.2s-1-3.2-3.2-3.2h-9.4c-2.3,0-3.2,1-3.2,3.2V158.9L-115.9,158.9z"/>
		<path id="XMLID_7_" d="M-98.3,158.9c0,2.2,1,3.2,3.2,3.2c3.9,0,6.7,0,10.5,0c0.6,0,1-0.4,1-1c0-0.5-0.4-1-1-1h-10.6
			c-1,0-1.2-0.4-1.2-1.2c0-1.5,0-2.9,0-4.4c0-0.9,0.3-1.2,1.2-1.2c3.9,0,6.7,0,10.5,0c0.6,0,1-0.4,1-1c0-0.5-0.4-1-1-1h-10.5
			c-2.2,0-3.2,1-3.2,3.2L-98.3,158.9C-98.3,158.9-98.3,158.9-98.3,158.9z"/>
		<path id="XMLID_4_" d="M-81.6,158.9c0,2.2,1,3.2,3.2,3.2h9.4c2.2,0,3.2-1,3.2-3.2v-4.4c0-2.2-1-3.2-3.2-3.2h-9.4
			c-2.2,0-3.2,1-3.2,3.2V158.9L-81.6,158.9z M-78.4,160.1c-1,0-1.2-0.4-1.2-1.2v-4.4c0-0.9,0.3-1.2,1.2-1.2h9.4c1,0,1.2,0.4,1.2,1.2
			c0,1.5,0,2.9,0,4.4c0,0.9-0.3,1.2-1.2,1.2H-78.4L-78.4,160.1z"/>
		<path id="XMLID_3_" d="M-129.7,152.3c0-0.6-0.4-1-1-1h-4.1c-2.2,0-3.2,1-3.2,3.2v4.4c0,0.9-0.4,1.2-1.3,1.2h-5.4
			c-0.6,0-0.9,0.4-0.9,1c0,0.5,0.4,1,0.9,1h5.4c2.2,0,3.2-1,3.2-3.2v-4.4c0-1,0.4-1.2,1.2-1.2h4.1
			C-130,153.2-129.7,152.9-129.7,152.3L-129.7,152.3z"/>
	</g>
</g>
</svg>
