<svg width="360" height="100" xmlns="http://www.w3.org/2000/svg">

 <g>
  <title>Layer 1</title>
  <g>

   <g data-name="full color" id="svg_1">
    <path fill="#2ba1dc" d="m75.74353,15.28694c-1.81,-6.46 -4.27,-12.36 -7.21,-12.11c-4.68,0.39 -9.24,13.06 -12,22.61a21.88,21.88 0 0 0 -0.39,10.43q0.21,1.11 0.51,2.19a20.21,20.21 0 0 0 3.65,7.24c6,7.59 14.84,17.3 19.27,15.67c5.81,-2.14 0.06,-27.77 -0.4,-30.2c-0.24,-1.26 -1.44,-8.87 -3.4,-15.83" class="cls-1"/>
    <path fill="#2ba1dc" d="m57.80353,1.75694a2,2 0 0 0 -0.83,-1.19c-4.57,-2.91 -29.22,16.63 -31.62,18.44s-26.64,19.28 -25.3,24a1.38,1.38 0 0 0 0.18,0.39c2.28,3.15 17.42,-1.16 28.58,-4.88a38.65,38.65 0 0 0 11.12,-6a32.87,32.87 0 0 0 8.25,-8.67c4.9,-7.86 10.68,-18.27 9.59,-22.15" class="cls-1"/>
    <path fill="#2ba1dc" d="m70.09353,66.58694c-1.16,-4.11 -9.75,-10.79 -16.77,-15.69a30,30 0 0 0 -10.73,-4.46a36.57,36.57 0 0 0 -12.4,-0.76c-11.61,1.33 -27.1,3.81 -28.05,7.67a1.27,1.27 0 0 0 0,0.67c1.38,4.91 29.27,10.5 32,11.11s32.6,8.12 35.74,3.5a2.34,2.34 0 0 0 0.22,-2" class="cls-1"/>
    <path fill="#252320" d="m97.90353,48.78694a20.32,20.32 0 0 1 7.3,-16.17q7.29,-6.26 19,-6.25q10.81,0 16.29,5l0,-6.44a11.52,11.52 0 0 0 -3.84,-9.19q-3.85,-3.33 -10.63,-3.32a39.14,39.14 0 0 0 -19,5.34l-5.47,-9.91a47,47 0 0 1 25.94,-7.84q27.12,0 27.12,25.81l0,43.94l-12.38,0l-1.18,-5.08q-6.12,6.78 -17.47,6.78q-10.95,0 -18.32,-6.32a20.57,20.57 0 0 1 -7.36,-16.35zm18.19,-8.78a10.82,10.82 0 0 0 0.06,16.82a18,18 0 0 0 20.73,0.07a11,11 0 0 0 0.07,-17c-2.66,-2.13 -6.15,-3.19 -10.5,-3.19s-7.71,1.07 -10.36,3.3z" class="cls-2"/>
    <path fill="#252320" d="m164.78353,57.91694l8.87,-7q6.12,8.86 16.3,8.87a12,12 0 0 0 7.56,-2.22a7.47,7.47 0 0 0 2.87,-6.26a7.26,7.26 0 0 0 -3.39,-6a32.73,32.73 0 0 0 -8.28,-4.3q-4.89,-1.77 -9.78,-4a21.27,21.27 0 0 1 -8.28,-6.72a17.75,17.75 0 0 1 -3.39,-11a17,17 0 0 1 6.58,-14.08q6.59,-5.2 16.76,-5.2q8.61,0 14.14,3.85a23.71,23.71 0 0 1 8,8.8l-9.78,6.52q-4.68,-7.56 -13.16,-7.57a10.32,10.32 0 0 0 -6.59,2a6.59,6.59 0 0 0 -2.54,5.42a6.91,6.91 0 0 0 3.45,5.86a35.47,35.47 0 0 0 8.35,4q4.89,1.69 9.71,3.84a21.21,21.21 0 0 1 8.28,6.65a17.8,17.8 0 0 1 3.46,11.15a18.61,18.61 0 0 1 -7,15.12q-7,5.74 -17.67,5.74q-16.9,0.09 -24.47,-13.47z" class="cls-2"/>
    <path fill="#252320" d="m230.89353,61.56694q-9.78,-9.9 -9.78,-25.55t9.51,-25.82a31,31 0 0 1 23.6,-10.19q15.25,0 24,9.71t8.74,25.88c0,1.57 -0.05,2.74 -0.13,3.52l-51.25,0q0.12,9 6.06,14.48t15.06,5.47q12.25,0 18.78,-9.52l9.38,7q-3.25,5.61 -10.43,10.24t-18,4.63q-15.77,0.06 -25.54,-9.85zm5.21,-32.2l36.38,0q-0.39,-8.22 -5.48,-12.85a18.12,18.12 0 0 0 -12.65,-4.63a17.63,17.63 0 0 0 -12.51,4.76a18.81,18.81 0 0 0 -5.74,12.72z" class="cls-2"/>
    <path fill="#252320" d="m304.16353,61.56694q-9.81,-9.9 -9.81,-25.56t9.52,-25.82a31,31 0 0 1 23.63,-10.18q15.25,0 24,9.71t8.73,25.88a33.78,33.78 0 0 1 -0.13,3.52l-51.25,0q0.13,9 6.07,14.48t15.06,5.47q12.24,0 18.77,-9.52l9.39,7a31.34,31.34 0 0 1 -10.43,10.24q-7.17,4.64 -18,4.63q-15.76,0.06 -25.55,-9.85zm5.19,-32.2l36.4,0q-0.39,-8.22 -5.48,-12.85a18.08,18.08 0 0 0 -12.64,-4.63a17.64,17.64 0 0 0 -12.52,4.76q-5.08,4.77 -5.76,12.72z" class="cls-2"/>
    <path fill="#252320" d="m184.40353,85.52694c1.32,0.19 2.54,0.8 2.67,2.23c0.3,1.91 0.05,4.43 -2.36,4.57c-3.2,0.18 -6.41,0 -9.61,0.07c-1.36,0.06 -1.36,-2.19 0.06,-2l7.73,0c1.47,0.19 2.92,-0.54 2.09,-2.19a1.38,1.38 0 0 0 -1.33,-0.56l-10.3,0c-1,0 -1.32,0.31 -1.34,1.29c0,1.64 0,3.29 0,4.94c0,1 0.38,1.33 1.48,1.33l12.56,0c0.68,0 1,0.25 1.15,0.79c0.21,0.82 -0.49,1.38 -1.28,1.28c-4.59,-0.1 -9.23,0.22 -13.81,-0.14c-1.93,-0.29 -2.23,-2.21 -2.18,-3.85c0,-1.38 0,-2.77 0,-4.15c-0.1,-1.94 0.71,-3.38 2.77,-3.56l11.7,-0.05z" class="cls-2"/>
    <path fill="#252320" d="m132.35353,85.52694a3.25,3.25 0 0 1 3,3.31c0,2.41 0,4.82 0,7.23c0,0.73 -0.36,1.1 -1,1.11a1,1 0 0 1 -1.1,-1.17c0,-2.28 0,-4.57 0,-6.85a1.47,1.47 0 0 0 -1.62,-1.63l-9.91,0a1.47,1.47 0 0 0 -1.62,1.62c0,1.49 0,3 0,4.48a1.45,1.45 0 0 0 1.45,1.47c2.52,0 5,0.06 7.55,0c0.09,-0.94 -0.41,-2.72 1.05,-2.7a1,1 0 0 1 1,0.95c-0.07,1.42 0.59,3.79 -1.55,3.85c-2.86,0 -5.72,0.07 -8.57,0c-4.21,-0.42 -2.8,-5.5 -3,-8.42a3.27,3.27 0 0 1 2.91,-3.22l11.41,-0.03z" class="cls-2"/>
    <path fill="#252320" d="m225.03353,94.57694c-0.24,1.92 -1.7,2.75 -3.54,2.65c-3.83,-0.08 -7.7,0.19 -11.52,-0.13c-3.4,-0.66 -1.93,-5.49 -2.23,-8c-0.08,-1.94 0.76,-3.42 2.83,-3.57l11.62,0a2.88,2.88 0 0 1 2.84,2.66l0,6.39zm-8.61,0.58l0,0c7.64,-0.18 6.51,1.52 6.53,-6.35c0,-1 -0.7,-1.25 -1.59,-1.21l-10.01,0c-0.76,0 -1.62,0.17 -1.56,1.1c0.06,7.95 -1.13,6.31 6.63,6.46z" class="cls-2"/>
    <path fill="#252320" d="m204.63353,85.52694a1.05,1.05 0 0 1 -0.39,2.06c-4,0.07 -8.09,-0.13 -12.11,0.09c-0.68,0.09 -0.77,0.81 -0.78,1.38l0,4.65c0,1.18 0.58,1.48 1.67,1.45l11.33,0c0.79,0 1.17,0.41 1.11,1.16a0.9,0.9 0 0 1 -1,0.9l-12.11,0a2.74,2.74 0 0 1 -2.95,-2.79q-0.09,-3 0,-5.93c0,-1.93 1,-2.62 2.76,-3l12.47,0.03z" class="cls-2"/>
    <path fill="#252320" d="m167.10353,85.52694c1.11,0.31 1,2.18 -0.3,2.07c-1.6,0 -3.2,0 -4.8,0a1,1 0 0 0 -1,1.09c-0.37,2.68 1.28,7.95 -2.55,8.44c-2.24,0.17 -4.51,0 -6.76,0.07a1,1 0 0 1 -1.06,-1.38a1,1 0 0 1 1.06,-0.69l5.43,0c1.44,0 1.74,-0.3 1.75,-1.72c0,-1.66 0,-3.32 0,-5c0,-1.89 1,-2.58 2.76,-2.93l5.47,0.05z" class="cls-2"/>
    <path fill="#252320" d="m153.97353,85.52694a1.07,1.07 0 0 1 0.74,0.86a1,1 0 0 1 -1,1.21c-1.56,0 -3.12,0 -4.68,0c-0.8,0.05 -1.12,0.36 -1.19,1.15c-0.08,2 0.11,4.05 -0.1,6.06a2.8,2.8 0 0 1 -3.1,2.4c-2,0 -4.09,0 -6.14,0c-1.38,0.09 -1.4,-2.16 0,-2.07l5.6,0c0.83,0.06 1.68,-0.23 1.64,-1.19c0.08,-2.06 -0.13,-4.14 0.14,-6.18c0.25,-1.47 1.3,-2.07 2.7,-2.26l5.39,0.02z" class="cls-2"/>
    <path fill="#2ba1dc" d="m98.02353,97.58694l0,-10.18l1.54,0l0,3.82a2.62,2.62 0 0 1 0.85,-0.78a2.8,2.8 0 0 1 1.53,-0.39a3.27,3.27 0 0 1 2.53,1.07a4.07,4.07 0 0 1 1,2.8a3.86,3.86 0 0 1 -1,2.77a3.37,3.37 0 0 1 -2.58,1.08a2.85,2.85 0 0 1 -2.37,-1.14l0,1l-1.5,-0.05zm1.48,-3.64a2.66,2.66 0 0 0 0.6,1.76a2,2 0 0 0 1.58,0.72a2,2 0 0 0 1.58,-0.69a2.52,2.52 0 0 0 0.62,-1.79a2.65,2.65 0 0 0 -0.61,-1.82a2,2 0 0 0 -1.57,-0.71a2.05,2.05 0 0 0 -1.58,0.68a2.65,2.65 0 0 0 -0.62,1.85z" class="cls-1"/>
    <path fill="#2ba1dc" d="m109.28353,100.11694l-1.48,0l1,-2.65l-2.91,-7.23l1.64,0l2,5.35l2,-5.35l1.6,0l-3.85,9.88z" class="cls-1"/>
   </g>
  </g>
 </g>
</svg>