<svg xmlns="http://www.w3.org/2000/svg" version="1.1" xmlns:xlink="http://www.w3.org/1999/xlink" xmlns:svgjs="http://svgjs.com/svgjs" width="700.000000pt" height="700.000000pt"><svg version="1.0" xmlns="http://www.w3.org/2000/svg" width="700.000000pt" height="700.000000pt" viewBox="0 0 700.000000 700.000000" preserveAspectRatio="xMidYMid meet">
<metadata>
Created by potrace 1.12, written by Peter Selinger 2001-2015
</metadata>
<g transform="translate(0.000000,700.000000) scale(0.100000,-0.100000)" fill="#000000" stroke="none">
<path d="M0 3500 l0 -3500 3500 0 3500 0 0 3500 0 3500 -3500 0 -3500 0 0
-3500z m5075 1600 c141 -25 175 -33 230 -53 93 -33 184 -83 255 -139 61 -48
159 -153 184 -197 6 -11 23 -41 39 -67 15 -25 27 -51 27 -56 0 -6 6 -22 14
-36 25 -46 53 -162 65 -267 8 -68 11 -427 11 -1115 0 -1074 -1 -1083 -47
-1157 -21 -36 -89 -93 -108 -93 -7 0 -26 -7 -41 -15 -17 -8 -55 -15 -90 -15
-115 0 -221 69 -270 175 l-24 54 0 1053 c0 1034 0 1055 -20 1093 -11 22 -20
44 -20 51 0 23 -131 153 -175 174 -107 52 -45 50 -1605 50 -1560 0 -1498 2
-1605 -50 -44 -21 -175 -151 -175 -174 0 -7 -9 -29 -20 -51 -19 -38 -20 -59
-20 -765 0 -706 1 -727 20 -765 11 -22 20 -44 20 -51 0 -22 130 -152 173 -173
108 -53 62 -51 1207 -51 l1065 -1 5 278 c5 293 7 302 57 375 39 57 147 108
227 108 134 -1 249 -88 282 -214 10 -38 14 -139 14 -409 0 -307 -2 -366 -17
-410 -36 -112 -125 -210 -243 -266 l-55 -26 -1220 -3 c-788 -1 -1243 1 -1285
8 -122 19 -165 28 -225 48 -120 41 -254 122 -340 206 -35 35 -105 120 -105
129 0 3 -16 29 -35 58 -19 30 -35 61 -35 71 0 9 -4 19 -9 23 -19 11 -57 161
-70 280 -15 137 -15 1434 0 1570 12 105 40 221 65 267 8 14 14 30 14 36 0 5
12 31 28 56 15 26 32 56 38 67 25 45 123 149 186 199 130 102 276 160 483 190
72 10 3090 10 3150 0z"></path>
</g>
</svg><style>@media (prefers-color-scheme: light) { :root { filter: none; } }
@media (prefers-color-scheme: dark) { :root { filter: invert(100%); } }
</style></svg>