<?xml version="1.0" standalone="no"?>
<!DOCTYPE svg PUBLIC "-//W3C//DTD SVG 20010904//EN"
 "http://www.w3.org/TR/2001/REC-SVG-20010904/DTD/svg10.dtd">
<svg version="1.0" xmlns="http://www.w3.org/2000/svg"
 width="703.000000pt" height="703.000000pt" viewBox="0 0 703.000000 703.000000"
 preserveAspectRatio="xMidYMid meet">
<metadata>
Created by potrace 1.14, written by Peter Selinger 2001-2017
</metadata>
<g transform="translate(0.000000,703.000000) scale(0.100000,-0.100000)"
fill="#000000" stroke="none">
<path d="M4415 6069 c-73 -13 -197 -60 -329 -125 -133 -65 -247 -125 -256
-134 -3 -3 -50 -32 -105 -65 -90 -53 -152 -93 -335 -214 -30 -20 -57 -38 -60
-41 -15 -15 -100 -70 -108 -70 -6 0 -12 -4 -14 -8 -1 -4 -25 -23 -53 -42 -27
-19 -54 -39 -60 -43 -5 -4 -40 -29 -76 -55 -37 -26 -77 -55 -90 -64 -40 -29
-293 -216 -304 -225 -6 -4 -46 -35 -90 -68 -44 -33 -105 -80 -135 -104 -30
-24 -64 -51 -76 -60 -11 -9 -28 -20 -36 -26 -9 -5 -70 -50 -135 -100 -66 -49
-132 -99 -147 -110 -37 -27 -174 -131 -211 -160 -16 -13 -66 -52 -110 -85 -44
-34 -96 -74 -115 -88 -19 -15 -45 -37 -58 -49 -12 -13 -27 -23 -32 -23 -4 0
-10 -3 -12 -8 -1 -4 -50 -45 -108 -92 -58 -46 -110 -89 -116 -95 -6 -5 -30
-26 -54 -45 -24 -19 -55 -46 -70 -60 -15 -14 -45 -40 -66 -58 -157 -136 -371
-343 -449 -436 -22 -26 -49 -57 -60 -70 -38 -44 -55 -66 -55 -71 0 -3 -15 -28
-33 -57 -116 -185 -39 -280 228 -281 75 -1 204 8 250 17 11 2 42 7 68 10 26 4
71 11 100 17 29 6 66 13 82 16 17 2 86 18 155 34 69 16 136 32 150 35 37 9 44
10 60 16 15 6 265 73 305 83 23 6 160 48 365 113 80 25 150 47 155 48 123 24
552 211 655 284 15 11 30 20 33 20 9 0 156 99 237 159 111 82 254 205 345 298
180 182 250 282 494 703 56 96 105 182 110 190 5 8 24 44 43 80 18 36 36 67
40 68 5 2 8 12 8 22 0 10 3 20 8 22 10 4 72 130 72 146 0 6 4 12 8 12 5 0 15
18 22 40 7 22 18 40 23 40 6 0 8 3 4 6 -3 4 2 23 12 43 57 113 121 303 144
431 40 212 -38 311 -218 279z"/>
<path d="M5328 5833 c-61 -31 -140 -108 -205 -200 -38 -53 -127 -204 -157
-267 -48 -100 -93 -199 -116 -256 -12 -30 -26 -64 -31 -75 -4 -11 -22 -56 -38
-100 -17 -44 -36 -93 -42 -110 -7 -16 -13 -32 -14 -35 -1 -3 -32 -97 -69 -210
-81 -246 -129 -408 -150 -514 -15 -71 -31 -239 -27 -276 1 -8 1 -24 1 -35 -1
-11 -1 -24 -1 -30 -1 -25 13 -180 16 -185 2 -3 7 -33 10 -65 4 -33 11 -68 16
-77 6 -10 8 -18 5 -18 -8 0 47 -194 72 -250 44 -102 88 -190 113 -228 16 -24
29 -45 29 -48 0 -3 5 -10 10 -17 6 -7 34 -43 63 -82 28 -38 56 -74 62 -80 6
-5 29 -32 50 -60 22 -27 42 -52 45 -55 3 -3 28 -32 55 -65 28 -33 59 -69 70
-81 11 -12 45 -50 75 -85 160 -184 401 -421 530 -519 18 -14 38 -30 44 -36 20
-19 130 -89 191 -121 119 -62 240 -77 314 -39 32 17 85 82 103 126 24 61 49
182 55 265 11 151 5 464 -11 575 -3 19 -8 64 -11 100 -3 36 -8 83 -10 105 -3
22 -7 54 -9 70 -4 30 -13 95 -21 150 -3 17 -7 41 -9 55 -6 32 -16 97 -22 135
-2 17 -6 41 -9 55 -4 21 -20 109 -31 175 -1 11 -10 56 -19 100 -9 44 -18 91
-21 105 -2 14 -9 45 -14 70 -10 47 -13 64 -32 165 -12 70 -17 97 -23 127 -2
13 -6 39 -9 58 -3 19 -8 45 -11 58 -11 49 -14 61 -19 93 -3 19 -10 57 -16 84
-6 28 -13 64 -16 80 -3 17 -14 67 -25 113 -10 46 -21 96 -24 110 -6 35 -77
315 -104 412 -12 41 -23 82 -25 90 -28 108 -125 359 -183 475 -75 148 -150
242 -223 279 -48 23 -125 19 -182 -11z"/>
<path d="M2767 2764 c-1 -1 -36 -5 -77 -8 -41 -3 -93 -8 -115 -11 -22 -3 -60
-7 -85 -10 -44 -5 -149 -19 -240 -31 -25 -3 -56 -7 -70 -9 -107 -14 -136 -18
-140 -20 -3 -2 -33 -7 -65 -10 -33 -4 -63 -9 -67 -11 -3 -2 -28 -7 -55 -10
-26 -3 -59 -7 -73 -10 -14 -2 -77 -13 -140 -24 -63 -12 -122 -23 -130 -25 -8
-2 -26 -6 -40 -9 -14 -2 -59 -12 -100 -21 -41 -9 -83 -18 -93 -20 -10 -2 -52
-14 -95 -25 -42 -12 -87 -24 -100 -26 -39 -8 -205 -65 -262 -91 -30 -14 -65
-29 -77 -34 -27 -10 -116 -72 -143 -99 -25 -25 -48 -79 -44 -105 7 -45 37 -84
115 -147 54 -44 275 -150 429 -206 30 -11 64 -24 75 -28 11 -4 22 -8 25 -9 3
0 61 -20 130 -42 156 -52 494 -149 620 -178 38 -9 439 -107 470 -115 42 -11
305 -70 338 -76 53 -10 74 -14 202 -44 74 -17 144 -34 155 -36 26 -6 54 -13
83 -18 12 -3 25 -7 30 -9 4 -3 25 -8 47 -11 22 -4 64 -13 95 -20 30 -8 73 -17
95 -22 22 -4 47 -9 55 -11 8 -3 26 -5 40 -7 14 -1 31 -6 38 -10 7 -4 12 -5 12
-2 0 3 11 1 24 -4 13 -5 43 -12 67 -15 24 -4 46 -8 50 -11 3 -2 25 -6 49 -9
23 -3 45 -7 49 -9 3 -2 27 -7 51 -11 25 -3 65 -11 90 -17 25 -5 59 -12 75 -14
27 -4 42 -7 110 -18 11 -2 52 -9 90 -15 39 -7 81 -14 95 -16 62 -10 342 -45
410 -50 41 -4 93 -8 115 -10 56 -6 312 -5 360 0 136 16 184 30 238 69 87 63
76 193 -28 337 -19 27 -35 51 -35 53 0 14 -217 238 -322 331 -143 127 -456
376 -558 445 -13 8 -35 25 -50 38 -15 12 -32 22 -38 22 -6 0 -12 4 -14 8 -3 8
-175 132 -183 132 -2 0 -21 12 -42 26 -56 38 -217 117 -303 148 -41 15 -84 31
-95 36 -54 22 -195 62 -258 74 -15 3 -37 8 -48 11 -12 4 -31 8 -42 10 -12 2
-35 6 -52 10 -51 10 -78 15 -125 21 -25 3 -61 8 -80 11 -78 11 -434 25 -443
17z"/>
</g>
</svg>
